<svg xmlns="http://www.w3.org/2000/svg" xmlns:xlink="http://www.w3.org/1999/xlink" width="500" zoomAndPan="magnify" viewBox="0 0 375 374.999991" height="200" preserveAspectRatio="xMidYMid meet" version="1.0"><defs><g/><clipPath id="18ee6b2893"><path d="M 0 142.828125 L 124.5 142.828125 L 124.5 229.078125 L 0 229.078125 Z M 0 142.828125 " clip-rule="nonzero"/></clipPath><clipPath id="20c9bc0428"><path d="M 53.050781 211.183594 L 116.34375 211.183594 C 117.691406 209.3125 118.894531 207.328125 119.933594 205.253906 C 119.957031 205.214844 119.972656 205.171875 119.992188 205.136719 C 120.429688 204.257812 120.835938 203.359375 121.214844 202.449219 C 122.007812 200.539062 122.667969 198.558594 123.179688 196.519531 L 44.644531 196.519531 L 42.542969 200.1875 L 41.242188 202.449219 L 36.539062 202.449219 L 35.238281 200.1875 L 33.136719 196.519531 L 24.730469 196.519531 L 22.628906 200.1875 L 20.527344 203.851562 L 22.628906 207.515625 L 24.730469 211.183594 L 33.136719 211.183594 L 35.238281 207.515625 L 36.539062 205.253906 L 41.242188 205.253906 L 42.542969 207.515625 L 44.644531 211.183594 Z M 43.421875 169.457031 L 44.722656 171.722656 L 46.824219 175.390625 L 123.179688 175.390625 C 122.667969 173.351562 122.007812 171.371094 121.214844 169.457031 C 120.839844 168.546875 120.429688 167.652344 119.992188 166.773438 C 119.972656 166.734375 119.957031 166.695312 119.933594 166.65625 C 118.894531 164.578125 117.691406 162.597656 116.34375 160.726562 L 46.824219 160.726562 L 44.722656 164.394531 L 43.421875 166.65625 L 38.714844 166.65625 L 37.417969 164.394531 L 35.316406 160.726562 L 26.914062 160.726562 L 24.808594 164.394531 L 22.707031 168.058594 L 24.808594 171.722656 L 26.914062 175.390625 L 35.316406 175.390625 L 37.417969 171.722656 L 38.714844 169.457031 Z M 103.273438 148.761719 C 96.921875 144.992188 89.535156 142.828125 81.671875 142.828125 L 65.746094 142.828125 L 63.644531 146.496094 L 62.347656 148.761719 L 57.640625 148.761719 L 54.242188 142.828125 L 45.835938 142.828125 L 43.734375 146.496094 L 42.4375 148.757812 L 41.632812 150.160156 L 42.4375 151.558594 L 43.734375 153.824219 L 45.835938 157.492188 L 54.242188 157.492188 L 56.34375 153.824219 L 57.640625 151.558594 L 62.347656 151.558594 L 63.644531 153.824219 L 65.746094 157.492188 L 113.773438 157.492188 C 111.859375 155.308594 109.734375 153.320312 107.425781 151.558594 C 106.097656 150.546875 104.714844 149.613281 103.273438 148.757812 Z M 16.820312 185.953125 L 14.71875 182.289062 L 12.617188 178.621094 L 4.214844 178.621094 L 2.113281 182.289062 L 0.0117188 185.953125 L 2.113281 189.621094 L 4.214844 193.285156 L 12.617188 193.285156 L 14.71875 189.621094 Z M 26.328125 214.417969 L 4.859375 214.417969 L 2.757812 218.082031 L 0.65625 221.75 L 2.757812 225.414062 L 4.859375 229.082031 L 26.328125 229.082031 L 28.425781 225.414062 L 29.726562 223.152344 L 34.429688 223.152344 L 35.730469 225.414062 L 37.832031 229.082031 L 81.667969 229.082031 C 89.535156 229.082031 96.921875 226.917969 103.273438 223.152344 C 104.710938 222.296875 106.097656 221.359375 107.425781 220.347656 C 109.734375 218.589844 111.859375 216.601562 113.773438 214.417969 L 37.832031 214.417969 L 35.730469 218.082031 L 34.429688 220.347656 L 29.726562 220.347656 L 28.425781 218.082031 Z M 55.65625 178.625 L 35.371094 178.625 L 33.265625 182.289062 L 31.96875 184.554688 L 31.167969 185.953125 L 31.96875 187.355469 L 33.265625 189.621094 L 35.371094 193.285156 L 55.65625 193.285156 L 57.757812 189.621094 L 59.058594 187.355469 L 63.765625 187.355469 L 62.960938 185.953125 L 65.0625 189.621094 L 67.164062 193.285156 L 123.867188 193.285156 C 124.199219 191.347656 124.402344 189.371094 124.46875 187.355469 C 124.480469 186.890625 124.488281 186.421875 124.488281 185.953125 C 124.488281 185.488281 124.480469 185.019531 124.46875 184.554688 C 124.402344 182.539062 124.199219 180.5625 123.867188 178.625 L 67.164062 178.625 L 65.0625 182.289062 L 62.960938 185.957031 L 63.765625 184.554688 L 59.058594 184.554688 L 57.757812 182.289062 Z M 55.65625 178.625 " clip-rule="evenodd"/></clipPath><linearGradient x1="2685.782283" gradientTransform="matrix(0.0450201, 0, 0, 0.0453401, 0.0108864, 142.829807)" y1="-54.272125" x2="914.653944" gradientUnits="userSpaceOnUse" y2="2529.313793" id="5334a74a30"><stop stop-opacity="1" stop-color="rgb(97.599792%, 27.49939%, 44.299316%)" offset="0"/><stop stop-opacity="1" stop-color="rgb(97.599792%, 27.49939%, 44.299316%)" offset="0.0625"/><stop stop-opacity="1" stop-color="rgb(97.598267%, 27.586365%, 44.352722%)" offset="0.078125"/><stop stop-opacity="1" stop-color="rgb(97.593689%, 27.854919%, 44.514465%)" offset="0.0859375"/><stop stop-opacity="1" stop-color="rgb(97.58606%, 28.213501%, 44.73114%)" offset="0.09375"/><stop stop-opacity="1" stop-color="rgb(97.579956%, 28.573608%, 44.947815%)" offset="0.101562"/><stop stop-opacity="1" stop-color="rgb(97.573853%, 28.93219%, 45.16449%)" offset="0.109375"/><stop stop-opacity="1" stop-color="rgb(97.567749%, 29.292297%, 45.381165%)" offset="0.117188"/><stop stop-opacity="1" stop-color="rgb(97.561646%, 29.650879%, 45.597839%)" offset="0.125"/><stop stop-opacity="1" stop-color="rgb(97.555542%, 30.010986%, 45.812988%)" offset="0.132812"/><stop stop-opacity="1" stop-color="rgb(97.549438%, 30.369568%, 46.029663%)" offset="0.140625"/><stop stop-opacity="1" stop-color="rgb(97.543335%, 30.729675%, 46.246338%)" offset="0.148438"/><stop stop-opacity="1" stop-color="rgb(97.537231%, 31.088257%, 46.463013%)" offset="0.15625"/><stop stop-opacity="1" stop-color="rgb(97.531128%, 31.448364%, 46.679688%)" offset="0.164062"/><stop stop-opacity="1" stop-color="rgb(97.525024%, 31.806946%, 46.896362%)" offset="0.171875"/><stop stop-opacity="1" stop-color="rgb(97.517395%, 32.167053%, 47.113037%)" offset="0.179688"/><stop stop-opacity="1" stop-color="rgb(97.511292%, 32.525635%, 47.329712%)" offset="0.1875"/><stop stop-opacity="1" stop-color="rgb(97.505188%, 32.885742%, 47.546387%)" offset="0.195312"/><stop stop-opacity="1" stop-color="rgb(97.499084%, 33.244324%, 47.763062%)" offset="0.203125"/><stop stop-opacity="1" stop-color="rgb(97.492981%, 33.602905%, 47.979736%)" offset="0.210938"/><stop stop-opacity="1" stop-color="rgb(97.486877%, 33.963013%, 48.196411%)" offset="0.21875"/><stop stop-opacity="1" stop-color="rgb(97.480774%, 34.321594%, 48.413086%)" offset="0.226563"/><stop stop-opacity="1" stop-color="rgb(97.47467%, 34.681702%, 48.629761%)" offset="0.234375"/><stop stop-opacity="1" stop-color="rgb(97.468567%, 35.040283%, 48.846436%)" offset="0.242188"/><stop stop-opacity="1" stop-color="rgb(97.462463%, 35.400391%, 49.06311%)" offset="0.25"/><stop stop-opacity="1" stop-color="rgb(97.45636%, 35.758972%, 49.279785%)" offset="0.257812"/><stop stop-opacity="1" stop-color="rgb(97.44873%, 36.11908%, 49.49646%)" offset="0.265625"/><stop stop-opacity="1" stop-color="rgb(97.442627%, 36.477661%, 49.713135%)" offset="0.273438"/><stop stop-opacity="1" stop-color="rgb(97.436523%, 36.837769%, 49.92981%)" offset="0.28125"/><stop stop-opacity="1" stop-color="rgb(97.43042%, 37.19635%, 50.146484%)" offset="0.289063"/><stop stop-opacity="1" stop-color="rgb(97.424316%, 37.556458%, 50.363159%)" offset="0.296875"/><stop stop-opacity="1" stop-color="rgb(97.418213%, 37.915039%, 50.579834%)" offset="0.304688"/><stop stop-opacity="1" stop-color="rgb(97.412109%, 38.275146%, 50.796509%)" offset="0.3125"/><stop stop-opacity="1" stop-color="rgb(97.406006%, 38.633728%, 51.013184%)" offset="0.320312"/><stop stop-opacity="1" stop-color="rgb(97.399902%, 38.993835%, 51.229858%)" offset="0.328125"/><stop stop-opacity="1" stop-color="rgb(97.393799%, 39.352417%, 51.446533%)" offset="0.335938"/><stop stop-opacity="1" stop-color="rgb(97.387695%, 39.712524%, 51.663208%)" offset="0.34375"/><stop stop-opacity="1" stop-color="rgb(97.380066%, 40.071106%, 51.879883%)" offset="0.351562"/><stop stop-opacity="1" stop-color="rgb(97.373962%, 40.429688%, 52.096558%)" offset="0.359375"/><stop stop-opacity="1" stop-color="rgb(97.367859%, 40.789795%, 52.313232%)" offset="0.367188"/><stop stop-opacity="1" stop-color="rgb(97.361755%, 41.148376%, 52.529907%)" offset="0.375"/><stop stop-opacity="1" stop-color="rgb(97.355652%, 41.508484%, 52.746582%)" offset="0.382813"/><stop stop-opacity="1" stop-color="rgb(97.349548%, 41.867065%, 52.963257%)" offset="0.390625"/><stop stop-opacity="1" stop-color="rgb(97.343445%, 42.227173%, 53.179932%)" offset="0.398438"/><stop stop-opacity="1" stop-color="rgb(97.337341%, 42.585754%, 53.396606%)" offset="0.40625"/><stop stop-opacity="1" stop-color="rgb(97.331238%, 42.945862%, 53.613281%)" offset="0.414063"/><stop stop-opacity="1" stop-color="rgb(97.325134%, 43.304443%, 53.829956%)" offset="0.421875"/><stop stop-opacity="1" stop-color="rgb(97.319031%, 43.664551%, 54.046631%)" offset="0.429688"/><stop stop-opacity="1" stop-color="rgb(97.311401%, 44.023132%, 54.263306%)" offset="0.4375"/><stop stop-opacity="1" stop-color="rgb(97.305298%, 44.38324%, 54.47998%)" offset="0.445312"/><stop stop-opacity="1" stop-color="rgb(97.299194%, 44.741821%, 54.696655%)" offset="0.453125"/><stop stop-opacity="1" stop-color="rgb(97.293091%, 45.101929%, 54.91333%)" offset="0.460937"/><stop stop-opacity="1" stop-color="rgb(97.286987%, 45.46051%, 55.130005%)" offset="0.46875"/><stop stop-opacity="1" stop-color="rgb(97.280884%, 45.820618%, 55.34668%)" offset="0.476562"/><stop stop-opacity="1" stop-color="rgb(97.27478%, 46.179199%, 55.563354%)" offset="0.484375"/><stop stop-opacity="1" stop-color="rgb(97.268677%, 46.539307%, 55.780029%)" offset="0.492188"/><stop stop-opacity="1" stop-color="rgb(97.262573%, 46.897888%, 55.996704%)" offset="0.499101"/><stop stop-opacity="1" stop-color="rgb(97.259521%, 47.077942%, 56.105042%)" offset="0.5"/><stop stop-opacity="1" stop-color="rgb(97.25647%, 47.257996%, 56.213379%)" offset="0.500899"/><stop stop-opacity="1" stop-color="rgb(97.253418%, 47.438049%, 56.321716%)" offset="0.507812"/><stop stop-opacity="1" stop-color="rgb(97.250366%, 47.616577%, 56.430054%)" offset="0.515625"/><stop stop-opacity="1" stop-color="rgb(97.242737%, 47.975159%, 56.646729%)" offset="0.523438"/><stop stop-opacity="1" stop-color="rgb(97.236633%, 48.335266%, 56.863403%)" offset="0.53125"/><stop stop-opacity="1" stop-color="rgb(97.23053%, 48.693848%, 57.080078%)" offset="0.539062"/><stop stop-opacity="1" stop-color="rgb(97.224426%, 49.053955%, 57.296753%)" offset="0.546875"/><stop stop-opacity="1" stop-color="rgb(97.218323%, 49.412537%, 57.513428%)" offset="0.554688"/><stop stop-opacity="1" stop-color="rgb(97.212219%, 49.772644%, 57.730103%)" offset="0.5625"/><stop stop-opacity="1" stop-color="rgb(97.206116%, 50.131226%, 57.946777%)" offset="0.570313"/><stop stop-opacity="1" stop-color="rgb(97.200012%, 50.491333%, 58.163452%)" offset="0.578125"/><stop stop-opacity="1" stop-color="rgb(97.193909%, 50.849915%, 58.380127%)" offset="0.585938"/><stop stop-opacity="1" stop-color="rgb(97.187805%, 51.210022%, 58.596802%)" offset="0.59375"/><stop stop-opacity="1" stop-color="rgb(97.181702%, 51.568604%, 58.813477%)" offset="0.601563"/><stop stop-opacity="1" stop-color="rgb(97.175598%, 51.928711%, 59.030151%)" offset="0.609375"/><stop stop-opacity="1" stop-color="rgb(97.167969%, 52.287292%, 59.246826%)" offset="0.617188"/><stop stop-opacity="1" stop-color="rgb(97.161865%, 52.6474%, 59.463501%)" offset="0.625"/><stop stop-opacity="1" stop-color="rgb(97.155762%, 53.005981%, 59.680176%)" offset="0.632813"/><stop stop-opacity="1" stop-color="rgb(97.149658%, 53.366089%, 59.896851%)" offset="0.640625"/><stop stop-opacity="1" stop-color="rgb(97.143555%, 53.72467%, 60.113525%)" offset="0.648438"/><stop stop-opacity="1" stop-color="rgb(97.137451%, 54.084778%, 60.3302%)" offset="0.65625"/><stop stop-opacity="1" stop-color="rgb(97.131348%, 54.443359%, 60.546875%)" offset="0.664063"/><stop stop-opacity="1" stop-color="rgb(97.125244%, 54.801941%, 60.76355%)" offset="0.671875"/><stop stop-opacity="1" stop-color="rgb(97.119141%, 55.162048%, 60.980225%)" offset="0.679688"/><stop stop-opacity="1" stop-color="rgb(97.113037%, 55.52063%, 61.196899%)" offset="0.6875"/><stop stop-opacity="1" stop-color="rgb(97.106934%, 55.880737%, 61.412048%)" offset="0.695312"/><stop stop-opacity="1" stop-color="rgb(97.099304%, 56.239319%, 61.628723%)" offset="0.703125"/><stop stop-opacity="1" stop-color="rgb(97.093201%, 56.599426%, 61.845398%)" offset="0.710938"/><stop stop-opacity="1" stop-color="rgb(97.087097%, 56.958008%, 62.062073%)" offset="0.71875"/><stop stop-opacity="1" stop-color="rgb(97.080994%, 57.318115%, 62.278748%)" offset="0.726562"/><stop stop-opacity="1" stop-color="rgb(97.07489%, 57.676697%, 62.495422%)" offset="0.734375"/><stop stop-opacity="1" stop-color="rgb(97.068787%, 58.036804%, 62.712097%)" offset="0.742188"/><stop stop-opacity="1" stop-color="rgb(97.062683%, 58.395386%, 62.928772%)" offset="0.75"/><stop stop-opacity="1" stop-color="rgb(97.05658%, 58.755493%, 63.145447%)" offset="0.757813"/><stop stop-opacity="1" stop-color="rgb(97.050476%, 59.114075%, 63.362122%)" offset="0.765625"/><stop stop-opacity="1" stop-color="rgb(97.044373%, 59.474182%, 63.578796%)" offset="0.773438"/><stop stop-opacity="1" stop-color="rgb(97.038269%, 59.832764%, 63.795471%)" offset="0.78125"/><stop stop-opacity="1" stop-color="rgb(97.03064%, 60.192871%, 64.012146%)" offset="0.789063"/><stop stop-opacity="1" stop-color="rgb(97.024536%, 60.551453%, 64.228821%)" offset="0.796875"/><stop stop-opacity="1" stop-color="rgb(97.018433%, 60.91156%, 64.445496%)" offset="0.804688"/><stop stop-opacity="1" stop-color="rgb(97.012329%, 61.270142%, 64.66217%)" offset="0.8125"/><stop stop-opacity="1" stop-color="rgb(97.006226%, 61.630249%, 64.878845%)" offset="0.820313"/><stop stop-opacity="1" stop-color="rgb(97.000122%, 61.988831%, 65.09552%)" offset="0.828125"/><stop stop-opacity="1" stop-color="rgb(96.994019%, 62.347412%, 65.312195%)" offset="0.835938"/><stop stop-opacity="1" stop-color="rgb(96.987915%, 62.70752%, 65.52887%)" offset="0.84375"/><stop stop-opacity="1" stop-color="rgb(96.981812%, 63.066101%, 65.745544%)" offset="0.851563"/><stop stop-opacity="1" stop-color="rgb(96.975708%, 63.426208%, 65.962219%)" offset="0.859375"/><stop stop-opacity="1" stop-color="rgb(96.969604%, 63.78479%, 66.178894%)" offset="0.867188"/><stop stop-opacity="1" stop-color="rgb(96.961975%, 64.144897%, 66.395569%)" offset="0.875"/><stop stop-opacity="1" stop-color="rgb(96.955872%, 64.503479%, 66.612244%)" offset="0.882812"/><stop stop-opacity="1" stop-color="rgb(96.949768%, 64.863586%, 66.828918%)" offset="0.890625"/><stop stop-opacity="1" stop-color="rgb(96.943665%, 65.222168%, 67.045593%)" offset="0.898438"/><stop stop-opacity="1" stop-color="rgb(96.937561%, 65.582275%, 67.262268%)" offset="0.90625"/><stop stop-opacity="1" stop-color="rgb(96.931458%, 65.940857%, 67.478943%)" offset="0.914062"/><stop stop-opacity="1" stop-color="rgb(96.925354%, 66.300964%, 67.695618%)" offset="0.921875"/><stop stop-opacity="1" stop-color="rgb(96.91925%, 66.659546%, 67.912292%)" offset="0.929688"/><stop stop-opacity="1" stop-color="rgb(96.913147%, 67.019653%, 68.128967%)" offset="0.9375"/><stop stop-opacity="1" stop-color="rgb(96.907043%, 67.378235%, 68.345642%)" offset="0.945312"/><stop stop-opacity="1" stop-color="rgb(96.90094%, 67.678833%, 68.525696%)" offset="0.953125"/><stop stop-opacity="1" stop-color="rgb(96.899414%, 67.799377%, 68.598938%)" offset="0.96875"/><stop stop-opacity="1" stop-color="rgb(96.899414%, 67.799377%, 68.598938%)" offset="1"/></linearGradient></defs><g clip-path="url(#18ee6b2893)"><g clip-path="url(#20c9bc0428)"><path fill="url(#5334a74a30)" d="M 0.0117188 142.828125 L 0.0117188 229.078125 L 124.488281 229.078125 L 124.488281 142.828125 Z M 0.0117188 142.828125 " fill-rule="nonzero"/></g></g><g fill="#f94671" fill-opacity="1"><g transform="translate(135.693937, 184.339793)"><g><path d="M 2 -32.03125 L 16.8125 -32.03125 C 21.695312 -32.03125 24.140625 -29.96875 24.140625 -25.84375 L 24.140625 -16.65625 C 24.140625 -12.539062 21.695312 -10.484375 16.8125 -10.484375 L 10.71875 -10.484375 L 10.71875 0 L 2 0 Z M 15.421875 -17.8125 L 15.421875 -24.703125 C 15.421875 -25.429688 15.003906 -25.796875 14.171875 -25.796875 L 10.71875 -25.796875 L 10.71875 -16.71875 L 14.171875 -16.71875 C 15.003906 -16.71875 15.421875 -17.082031 15.421875 -17.8125 Z M 15.421875 -17.8125 "/></g></g></g><g fill="#f94671" fill-opacity="1"><g transform="translate(167.822865, 184.339793)"><g><path d="M 2.5 -32.03125 L 17.21875 -32.03125 C 22.101562 -32.03125 24.546875 -29.96875 24.546875 -25.84375 L 24.546875 -6.1875 C 24.546875 -2.0625 22.101562 0 17.21875 0 L 2.5 0 Z M 15.8125 -6.828125 L 15.8125 -25.1875 C 15.8125 -25.925781 15.394531 -26.296875 14.5625 -26.296875 L 11.21875 -26.296875 L 11.21875 -5.734375 L 14.5625 -5.734375 C 15.394531 -5.734375 15.8125 -6.097656 15.8125 -6.828125 Z M 15.8125 -6.828125 "/></g></g></g><g fill="#f94671" fill-opacity="1"><g transform="translate(201.198958, 184.339793)"><g><path d="M 2 -32.03125 L 16.8125 -32.03125 C 21.695312 -32.03125 24.140625 -29.96875 24.140625 -25.84375 L 24.140625 -16.65625 C 24.140625 -12.539062 21.695312 -10.484375 16.8125 -10.484375 L 10.71875 -10.484375 L 10.71875 0 L 2 0 Z M 15.421875 -17.8125 L 15.421875 -24.703125 C 15.421875 -25.429688 15.003906 -25.796875 14.171875 -25.796875 L 10.71875 -25.796875 L 10.71875 -16.71875 L 14.171875 -16.71875 C 15.003906 -16.71875 15.421875 -17.082031 15.421875 -17.8125 Z M 15.421875 -17.8125 "/></g></g></g><g fill="#f94671" fill-opacity="1"><g transform="translate(233.327884, 184.339793)"><g><path d="M 18.3125 0 L 17.3125 -4.796875 L 9.625 -4.796875 L 8.578125 0 L 0 0 L 8.234375 -32.03125 L 18.859375 -32.03125 L 27.09375 0 Z M 10.96875 -10.96875 L 15.96875 -10.96875 L 13.515625 -22.5 Z M 10.96875 -10.96875 "/></g></g></g><g fill="#f94671" fill-opacity="1"><g transform="translate(138.683375, 221.131509)"><g><path d="M 5.53125 0 L 1.4375 0 L 1.4375 -15.359375 C 1.4375 -17.929688 2.644531 -19.21875 5.0625 -19.21875 L 7.21875 -19.21875 C 8.644531 -19.21875 9.660156 -18.75 10.265625 -17.8125 C 10.828125 -18.75 11.84375 -19.21875 13.3125 -19.21875 L 15.46875 -19.21875 C 17.882812 -19.21875 19.09375 -17.929688 19.09375 -15.359375 L 19.09375 0 L 15 0 L 15 -15.703125 C 15 -15.859375 14.945312 -15.992188 14.84375 -16.109375 C 14.738281 -16.234375 14.609375 -16.296875 14.453125 -16.296875 L 12.875 -16.296875 C 12.71875 -16.296875 12.582031 -16.234375 12.46875 -16.109375 C 12.363281 -15.992188 12.3125 -15.859375 12.3125 -15.703125 L 12.3125 0 L 8.21875 0 L 8.21875 -15.703125 C 8.21875 -15.859375 8.160156 -15.992188 8.046875 -16.109375 C 7.941406 -16.234375 7.8125 -16.296875 7.65625 -16.296875 L 6.078125 -16.296875 C 5.921875 -16.296875 5.789062 -16.234375 5.6875 -16.109375 C 5.582031 -15.992188 5.53125 -15.859375 5.53125 -15.703125 Z M 5.53125 0 "/></g></g></g><g fill="#f94671" fill-opacity="1"><g transform="translate(167.99243, 221.131509)"><g><path d="M 8.984375 -19.21875 C 11.398438 -19.21875 12.609375 -17.929688 12.609375 -15.359375 L 12.609375 0 L 8.515625 0 L 8.515625 -6.34375 L 5.5625 -6.34375 L 5.5625 0 L 1.46875 0 L 1.46875 -15.359375 C 1.46875 -17.929688 2.675781 -19.21875 5.09375 -19.21875 Z M 5.5625 -9.5 L 8.515625 -9.5 L 8.515625 -15.859375 C 8.515625 -16.015625 8.457031 -16.148438 8.34375 -16.265625 C 8.238281 -16.378906 8.109375 -16.4375 7.953125 -16.4375 L 6.109375 -16.4375 C 5.953125 -16.4375 5.820312 -16.378906 5.71875 -16.265625 C 5.613281 -16.148438 5.5625 -16.015625 5.5625 -15.859375 Z M 5.5625 -9.5 "/></g></g></g><g fill="#f94671" fill-opacity="1"><g transform="translate(191.041991, 221.131509)"><g><path d="M 12.3125 0 L 8.21875 0 L 8.21875 -15.703125 C 8.21875 -15.859375 8.160156 -15.992188 8.046875 -16.109375 C 7.941406 -16.234375 7.8125 -16.296875 7.65625 -16.296875 L 6.078125 -16.296875 C 5.921875 -16.296875 5.789062 -16.234375 5.6875 -16.109375 C 5.582031 -15.992188 5.53125 -15.859375 5.53125 -15.703125 L 5.53125 0 L 1.4375 0 L 1.4375 -15.359375 C 1.4375 -17.929688 2.644531 -19.21875 5.0625 -19.21875 L 8.6875 -19.21875 C 11.101562 -19.21875 12.3125 -17.929688 12.3125 -15.359375 Z M 12.3125 0 "/></g></g></g><g fill="#f94671" fill-opacity="1"><g transform="translate(213.506542, 221.131509)"><g><path d="M 8.984375 -19.21875 C 11.398438 -19.21875 12.609375 -17.929688 12.609375 -15.359375 L 12.609375 0 L 8.515625 0 L 8.515625 -6.34375 L 5.5625 -6.34375 L 5.5625 0 L 1.46875 0 L 1.46875 -15.359375 C 1.46875 -17.929688 2.675781 -19.21875 5.09375 -19.21875 Z M 5.5625 -9.5 L 8.515625 -9.5 L 8.515625 -15.859375 C 8.515625 -16.015625 8.457031 -16.148438 8.34375 -16.265625 C 8.238281 -16.378906 8.109375 -16.4375 7.953125 -16.4375 L 6.109375 -16.4375 C 5.953125 -16.4375 5.820312 -16.378906 5.71875 -16.265625 C 5.613281 -16.148438 5.5625 -16.015625 5.5625 -15.859375 Z M 5.5625 -9.5 "/></g></g></g><g fill="#f94671" fill-opacity="1"><g transform="translate(236.556103, 221.131509)"><g><path d="M 6.984375 -7.515625 L 6.984375 -10.53125 L 12.40625 -10.53125 L 12.40625 -3.5625 C 12.40625 -0.988281 11.195312 0.296875 8.78125 0.296875 L 5.09375 0.296875 C 2.675781 0.296875 1.46875 -0.988281 1.46875 -3.5625 L 1.46875 -15.359375 C 1.46875 -17.929688 2.675781 -19.21875 5.09375 -19.21875 L 8.78125 -19.21875 C 11.195312 -19.21875 12.40625 -17.929688 12.40625 -15.359375 L 12.40625 -13.578125 L 8.515625 -13.578125 L 8.515625 -15.859375 C 8.515625 -16.015625 8.457031 -16.148438 8.34375 -16.265625 C 8.238281 -16.378906 8.109375 -16.4375 7.953125 -16.4375 L 6.109375 -16.4375 C 5.953125 -16.4375 5.820312 -16.378906 5.71875 -16.265625 C 5.613281 -16.148438 5.5625 -16.015625 5.5625 -15.859375 L 5.5625 -3.09375 C 5.5625 -2.9375 5.613281 -2.800781 5.71875 -2.6875 C 5.820312 -2.570312 5.953125 -2.515625 6.109375 -2.515625 L 7.953125 -2.515625 C 8.109375 -2.515625 8.238281 -2.570312 8.34375 -2.6875 C 8.457031 -2.800781 8.515625 -2.9375 8.515625 -3.09375 L 8.515625 -7.515625 Z M 6.984375 -7.515625 "/></g></g></g><g fill="#f94671" fill-opacity="1"><g transform="translate(258.611155, 221.131509)"><g><path d="M 5.5625 -3.390625 L 10.09375 -3.390625 L 10.09375 0 L 1.46875 0 L 1.46875 -18.921875 L 10.09375 -18.921875 L 10.09375 -15.59375 L 5.5625 -15.59375 L 5.5625 -11.140625 L 9.796875 -11.140625 L 9.796875 -7.921875 L 5.5625 -7.921875 Z M 5.5625 -3.390625 "/></g></g></g><g fill="#f94671" fill-opacity="1"><g transform="translate(278.472466, 221.131509)"><g><path d="M 5.53125 0 L 1.4375 0 L 1.4375 -15.359375 C 1.4375 -17.929688 2.644531 -19.21875 5.0625 -19.21875 L 7.21875 -19.21875 C 8.644531 -19.21875 9.660156 -18.75 10.265625 -17.8125 C 10.828125 -18.75 11.84375 -19.21875 13.3125 -19.21875 L 15.46875 -19.21875 C 17.882812 -19.21875 19.09375 -17.929688 19.09375 -15.359375 L 19.09375 0 L 15 0 L 15 -15.703125 C 15 -15.859375 14.945312 -15.992188 14.84375 -16.109375 C 14.738281 -16.234375 14.609375 -16.296875 14.453125 -16.296875 L 12.875 -16.296875 C 12.71875 -16.296875 12.582031 -16.234375 12.46875 -16.109375 C 12.363281 -15.992188 12.3125 -15.859375 12.3125 -15.703125 L 12.3125 0 L 8.21875 0 L 8.21875 -15.703125 C 8.21875 -15.859375 8.160156 -15.992188 8.046875 -16.109375 C 7.941406 -16.234375 7.8125 -16.296875 7.65625 -16.296875 L 6.078125 -16.296875 C 5.921875 -16.296875 5.789062 -16.234375 5.6875 -16.109375 C 5.582031 -15.992188 5.53125 -15.859375 5.53125 -15.703125 Z M 5.53125 0 "/></g></g></g><g fill="#f94671" fill-opacity="1"><g transform="translate(307.781515, 221.131509)"><g><path d="M 5.5625 -3.390625 L 10.09375 -3.390625 L 10.09375 0 L 1.46875 0 L 1.46875 -18.921875 L 10.09375 -18.921875 L 10.09375 -15.59375 L 5.5625 -15.59375 L 5.5625 -11.140625 L 9.796875 -11.140625 L 9.796875 -7.921875 L 5.5625 -7.921875 Z M 5.5625 -3.390625 "/></g></g></g><g fill="#f94671" fill-opacity="1"><g transform="translate(327.642826, 221.131509)"><g><path d="M 12.3125 0 L 8.21875 0 L 8.21875 -15.703125 C 8.21875 -15.859375 8.160156 -15.992188 8.046875 -16.109375 C 7.941406 -16.234375 7.8125 -16.296875 7.65625 -16.296875 L 6.078125 -16.296875 C 5.921875 -16.296875 5.789062 -16.234375 5.6875 -16.109375 C 5.582031 -15.992188 5.53125 -15.859375 5.53125 -15.703125 L 5.53125 0 L 1.4375 0 L 1.4375 -15.359375 C 1.4375 -17.929688 2.644531 -19.21875 5.0625 -19.21875 L 8.6875 -19.21875 C 11.101562 -19.21875 12.3125 -17.929688 12.3125 -15.359375 Z M 12.3125 0 "/></g></g></g><g fill="#f94671" fill-opacity="1"><g transform="translate(350.107371, 221.131509)"><g><path d="M 0.375 -15.4375 L 0.375 -18.921875 L 10.625 -18.921875 L 10.625 -15.4375 L 7.546875 -15.4375 L 7.546875 0 L 3.453125 0 L 3.453125 -15.4375 Z M 0.375 -15.4375 "/></g></g></g></svg>